Coordinates
version=1
nRows=11
nColumns=36
inDegrees=yes

Units are S.I. units (second, meters, Newtons, ...)
If the header above contains a line with 'inDegrees', this indicates whether rotational values are in degrees (yes) or radians (no).

endheader
time	pelvis_tilt	pelvis_list	pelvis_rotation	pelvis_tx	pelvis_ty	pelvis_tz	hip_flexion_r	hip_adduction_r	hip_rotation_r	knee_angle_r	knee_angle_r_beta	ankle_angle_r	subtalar_angle_r	mtp_angle_r	hip_flexion_l	hip_adduction_l	hip_rotation_l	knee_angle_l	knee_angle_l_beta	ankle_angle_l	subtalar_angle_l	mtp_angle_l	lumbar_extension	lumbar_bending	lumbar_rotation	arm_flex_r	arm_add_r	arm_rot_r	elbow_flex_r	pro_sup_r	arm_flex_l	arm_add_l	arm_rot_l	elbow_flex_l	pro_sup_l
      0.00000000	    -11.67822845	     -0.68145840	     -2.00649073	      0.24386113	      1.00464749	     -0.03288430	      7.50344101	      0.83229975	     -6.85462557	      0.17608016	      0.00307318	      5.72844825	      0.53925694	     -5.39817960	     10.46169265	     -4.05807554	     -0.80616831	     11.15633360	      0.19471475	     -0.55076228	    -10.54638611	     -5.39817960	      2.46387982	      0.34026331	     -2.51444515	    -38.23793501	    -26.31456790	     10.51661458	     82.14525697	     78.56373981	    -19.62564242	    -33.98727265	     17.66833747	     86.59642224	     80.83573123
      0.01666670	    -13.74340021	     -0.50268672	     -3.46923478	      0.24410454	      1.00033628	     -0.03269342	      9.44151665	      0.81540552	     -5.74880534	      0.16068287	      0.00280445	      5.46829206	      1.66650068	     -5.59901476	     11.89311392	     -4.34244729	     -0.75007868	     10.58467342	      0.18473740	     -0.06266040	     -9.03474121	     -5.59901476	      4.51414588	      0.19281313	     -6.08909170	    -45.11677581	    -25.57075773	     10.90083255	     93.15324317	     78.58720692	    -26.57566100	    -37.19570453	     20.54787684	     88.31515103	     80.45548236
      0.03333330	    -15.00328999	      0.12925105	     -4.10154625	      0.24356084	      1.00099346	     -0.03303341	     10.85779390	      0.27988731	     -4.44785946	      0.15309431	      0.00267200	      5.59107199	      0.72066637	     -6.12457662	     13.38512821	     -3.90097591	     -0.68703852	     10.98469925	      0.19171917	      1.32910978	     -9.21404131	     -6.12457662	      5.62699650	     -0.52205091	     -7.18313544	    -46.66897707	    -22.79903904	      8.07072252	     93.66067172	     81.61760314	    -26.53454326	    -39.68094870	     24.89219332	     86.33356569	     76.52078464
      0.05000000	    -15.72387853	      0.54485150	     -4.39315821	      0.23444900	      0.98902438	     -0.03938463	     11.89162513	     -0.28702081	     -3.75845917	      0.15948915	      0.00278361	      5.58332841	      0.59235269	     -6.27579420	     14.38858350	     -3.51883942	     -0.18901224	     11.11116204	      0.19392636	      2.38640727	     -9.32317366	     -6.27579420	      5.90937385	     -0.92603224	     -8.67771342	    -46.88702773	    -22.51889239	      6.49544298	     94.75648737	     80.88835903	    -28.58337315	    -41.30587630	     25.32988072	     88.60182588	     75.27931638
      0.06666670	    -16.19893089	      0.98306138	     -4.73331247	      0.23468702	      0.99026177	     -0.03947647	     12.58530803	     -0.83014304	     -3.25879343	      0.16083174	      0.00280704	      5.73618157	      0.62981403	     -6.38150895	     14.86537863	     -3.15415971	     -0.26959478	     10.65697943	      0.18599938	      3.12193192	     -9.40449572	     -6.38150895	      6.36010940	     -1.26174585	     -9.25539898	    -46.59099192	    -22.53068756	      5.71148098	     94.84599715	     81.33315361	    -30.31908478	    -42.06033594	     25.16967945	     90.93567448	     73.86210874
      0.08333330	    -16.65245510	      1.29678698	     -5.08363217	      0.23528624	      0.99597956	     -0.03905900	     13.17068520	     -1.17856283	     -2.88618853	      0.15917987	      0.00277821	      5.68177630	      0.71105217	     -6.62204460	     15.14172752	     -2.99116679	     -0.90519568	      9.94614271	      0.17359294	      3.57437007	     -8.61425192	     -6.62204460	      6.81853501	     -1.49371106	    -10.37381419	    -45.02728595	    -23.44548894	      6.38833418	     93.84526646	     86.59238542	    -33.31072939	    -41.16167279	     22.85417505	     91.99023193	     69.44632674
      0.10000000	    -17.07805858	      1.39092566	     -5.16890380	      0.23560684	      0.99634345	     -0.03967727	     13.62375757	     -1.34100798	     -2.84658618	      0.16028360	      0.00279748	      5.50555674	      0.80091245	     -6.66760086	     15.49863722	     -2.95909209	     -1.24190113	      9.51406644	      0.16605178	      3.94597950	     -8.29456132	     -6.66760086	      7.30180442	     -1.31549631	    -10.16761694	    -44.44489425	    -23.41143372	      6.31619150	     93.14298726	     86.03343303	    -33.64318247	    -41.11300287	     23.14475586	     91.88927698	     69.23259096
      0.11666670	    -17.38903288	      1.59915804	     -5.40931261	      0.23585292	      0.99572205	     -0.03877970	     13.97070917	     -1.54143022	     -2.40538810	      0.16151882	      0.00281904	      5.15790984	      0.57088676	     -6.83161557	     15.63439437	     -2.88123581	     -2.10144677	      9.02746234	      0.15755894	      4.21913270	     -7.41296840	     -6.83161557	      7.74538646	     -1.48235767	    -10.53633002	    -42.82715558	    -24.26028287	      7.78211340	     91.82109298	     90.33767746	    -35.38907064	    -40.30835390	     21.62567110	     92.01959907	     69.47808163
      0.13333330	    -17.59840229	      1.70684520	     -5.55216141	      0.23612007	      0.99598500	     -0.03917930	     14.17856940	     -1.66931022	     -2.15871044	      0.16203969	      0.00282813	      4.99805490	      0.56624913	     -6.91297552	     15.70359987	     -2.83345617	     -2.61697466	      8.69549999	      0.15176510	      4.41124683	     -6.99694444	     -6.91297552	      8.11885974	     -1.40222293	    -10.11297493	    -42.33410966	    -24.68958946	      8.54605431	     91.69625964	     89.55732282	    -35.75587295	    -40.14107174	     22.02815010	     91.92383451	     69.50803829
      0.15000000	    -17.84266740	      1.82522188	     -5.61048771	      0.23628590	      0.99554454	     -0.03862955	     14.42416063	     -1.80074679	     -1.86189461	      0.16553981	      0.00288921	      4.69774125	      0.37761806	     -6.98874815	     15.88888389	     -2.77531819	     -3.12508680	      8.53241734	      0.14891878	      4.69157335	     -6.38254441	     -6.98874815	      8.38719840	     -1.39144310	    -10.15194949	    -41.52356639	    -25.51880590	      9.87108067	     91.38005502	     90.56484060	    -36.54972739	    -39.77573871	     21.80450392	     91.78250848	     70.44643942
      0.16666670	    -18.14337844	      1.82759754	     -5.60408501	      0.22794278	      0.98929020	     -0.04544952	     14.85709418	     -1.86749700	     -1.66232357	      0.17947937	      0.00313251	      4.57203295	      0.12777786	     -7.13531459	     16.38719697	     -2.74737161	     -3.33058732	      8.73145037	      0.15239256	      5.20249089	     -6.26017562	     -7.13531459	      8.43380067	     -1.17320090	    -10.72557245	    -40.57199361	    -26.61264039	     10.91512175	     91.63453471	     93.81032968	    -37.88352682	    -38.94710243	     20.31137934	     91.95906914	     73.28075539
